<svg width="42" height="45" viewBox="0 0 42 45" fill="none" xmlns="http://www.w3.org/2000/svg">
<path d="M37.8 39.375H33.6V14.7656L21 25.3125L8.4 14.7656V39.375H4.2V5.625H6.72L21 17.5781L35.28 5.625H37.8M37.8 0H4.2C1.869 0 0 2.50312 0 5.625V39.375C0 40.8668 0.442499 42.2976 1.23015 43.3525C2.0178 44.4074 3.08609 45 4.2 45H37.8C38.9139 45 39.9822 44.4074 40.7698 43.3525C41.5575 42.2976 42 40.8668 42 39.375V5.625C42 4.13316 41.5575 2.70242 40.7698 1.64752C39.9822 0.592632 38.9139 0 37.8 0Z" fill="white"/>
</svg>
