<svg width="46" height="45" viewBox="0 0 46 45" fill="none" xmlns="http://www.w3.org/2000/svg">
<path d="M22.8203 0H23.0287C26.8363 0 29.8352 4.38907e-08 32.2402 0.214773C34.6952 0.431591 36.7334 0.885682 38.5549 1.91864C40.7724 3.17527 42.6139 4.98263 43.8942 7.15909C44.9467 8.94682 45.4093 10.9473 45.6302 13.3568C45.8491 15.7173 45.8491 18.6607 45.8491 22.3977V22.6023C45.8491 26.3393 45.8491 29.2827 45.6302 31.6432C45.4093 34.0527 44.9467 36.0532 43.8942 37.8409C42.6139 40.0174 40.7724 41.8247 38.5549 43.0814C36.7334 44.1143 34.6952 44.5684 32.2402 44.7852C29.8352 45 26.8363 45 23.0287 45H22.8203C19.0128 45 16.0138 45 13.6088 44.7852C11.1538 44.5684 9.11563 44.1143 7.29417 43.0814C5.07664 41.8247 3.23518 40.0174 1.95484 37.8409C0.902393 36.0532 0.439734 34.0527 0.218825 31.6432C4.47188e-08 29.2827 0 26.3393 0 22.6023V22.3977C0 18.6607 4.47188e-08 15.7173 0.218825 13.3568C0.439734 10.9473 0.902393 8.94682 1.95484 7.15909C3.23518 4.98263 5.07664 3.17527 7.29417 1.91864C9.11563 0.885682 11.1538 0.431591 13.6088 0.214773C16.0138 4.38907e-08 19.0128 0 22.8203 0ZM13.984 4.28727C11.8186 4.48159 10.4598 4.84773 9.37822 5.46136C7.79427 6.35896 6.47894 7.64993 5.56441 9.20455C4.93919 10.2661 4.56407 11.5998 4.36817 13.725C4.17018 15.8809 4.1681 18.6382 4.1681 22.5C4.1681 26.3618 4.17018 29.1191 4.36817 31.275C4.56615 33.4002 4.93919 34.7339 5.56441 35.7955C6.47894 37.3501 7.79427 38.641 9.37822 39.5386C10.4598 40.1523 11.8186 40.5205 13.984 40.7127C16.1806 40.9071 18.9899 40.9091 22.9245 40.9091C26.8592 40.9091 29.6685 40.9071 31.8651 40.7127C34.0304 40.5184 35.3892 40.1523 36.4708 39.5386C38.0548 38.641 39.3701 37.3501 40.2847 35.7955C40.9099 34.7339 41.285 33.4002 41.4809 31.275C41.6789 29.1211 41.681 26.3618 41.681 22.5C41.681 18.6382 41.6789 15.8809 41.4809 13.725C41.2829 11.5998 40.9099 10.2661 40.2847 9.20455C39.3701 7.64993 38.0548 6.35896 36.4708 5.46136C35.3892 4.84773 34.0304 4.47955 31.8651 4.28727C29.6706 4.09295 26.8592 4.09091 22.9245 4.09091C18.9899 4.09091 16.1806 4.09295 13.984 4.28727ZM32.8238 10.7427C32.8238 9.61364 33.7616 8.69318 34.912 8.69318C36.0624 8.69318 37.0002 9.61364 37.0002 10.7427C37.0002 11.8718 36.0624 12.7923 34.912 12.7923C33.7616 12.7923 32.8238 11.8718 32.8238 10.7427ZM22.9245 15.3409C21.9666 15.3409 21.0181 15.5261 20.1332 15.8859C19.2482 16.2456 18.4441 16.773 17.7668 17.4378C17.0895 18.1025 16.5522 18.8918 16.1856 19.7603C15.819 20.6289 15.6304 21.5599 15.6304 22.5C15.6304 23.4401 15.819 24.3711 16.1856 25.2397C16.5522 26.1082 17.0895 26.8975 17.7668 27.5622C18.4441 28.227 19.2482 28.7544 20.1332 29.1141C21.0181 29.4739 21.9666 29.6591 22.9245 29.6591C24.8591 29.6591 26.7144 28.9048 28.0823 27.5622C29.4502 26.2197 30.2187 24.3987 30.2187 22.5C30.2187 20.6013 29.4502 18.7804 28.0823 17.4378C26.7144 16.0952 24.8591 15.3409 22.9245 15.3409ZM11.4623 22.5C11.4623 19.5163 12.6699 16.6548 14.8195 14.545C16.9691 12.4353 19.8846 11.25 22.9245 11.25C25.9645 11.25 28.88 12.4353 31.0296 14.545C33.1792 16.6548 34.3868 19.5163 34.3868 22.5C34.3868 25.4837 33.1792 28.3452 31.0296 30.455C28.88 32.5647 25.9645 33.75 22.9245 33.75C19.8846 33.75 16.9691 32.5647 14.8195 30.455C12.6699 28.3452 11.4623 25.4837 11.4623 22.5Z" fill="white" fill-opacity="0.8"/>
</svg>
